<?xml version="1.0" encoding="UTF-8"?>
<svg version="1.1" xmlns="http://www.w3.org/2000/svg" width="2245" height="1587">
<path d="M0 0 C740.85 0 1481.7 0 2245 0 C2245 523.71 2245 1047.42 2245 1587 C1504.15 1587 763.3 1587 0 1587 C0 1063.29 0 539.58 0 0 Z " fill="#000000" transform="translate(0,0)"/>
<path d="M0 0 C2 2 2 2 2.1875 5 C2 8 2 8 1 10 C-1.38016816 19.9020781 -1.28478614 29.8633997 -1.25878906 39.97070312 C-1.2615043 41.75593711 -1.26506821 43.54116998 -1.26940918 45.32640076 C-1.27847204 50.14248629 -1.27501427 54.95848546 -1.26865101 59.77457237 C-1.26355925 64.83380731 -1.26829125 69.89303525 -1.27142334 74.95227051 C-1.27505377 83.44557003 -1.27028817 91.93883469 -1.26074219 100.43212891 C-1.24985943 110.22740299 -1.25338566 120.02259378 -1.264395 129.81786585 C-1.27349424 138.25390154 -1.27474028 146.68991227 -1.26951766 155.12595129 C-1.26641243 160.15303759 -1.2659486 165.18008485 -1.27259064 170.20716858 C-1.27840194 174.93507312 -1.27429846 179.66287111 -1.26280212 184.39076424 C-1.26017567 186.11761868 -1.26088581 187.84448221 -1.26532745 189.57133293 C-2.21935689 205.28470433 -2.21935689 205.28470433 2.83614731 219.25719452 C5.95957575 221.77285939 9.32817132 222.12832616 13.1875 222.6875 C20.91047297 223.91047297 20.91047297 223.91047297 22 225 C22.26293056 229.03160191 22.29404844 230.55892734 20 234 C17.74780273 234.62841797 17.74780273 234.62841797 14.93359375 234.9921875 C13.8981543 235.1375293 12.86271484 235.28287109 11.79589844 235.43261719 C10.68762695 235.57860352 9.57935547 235.72458984 8.4375 235.875 C-0.21950166 237.11738265 -8.47832943 238.66722406 -16.78344727 241.42529297 C-20.30110409 242.58314097 -23.28510412 243.35773071 -27 243 C-28 242 -28 242 -28.11352539 240.14233398 C-28.10567017 238.95619507 -28.10567017 238.95619507 -28.09765625 237.74609375 C-28.09282227 236.46508789 -28.09282227 236.46508789 -28.08789062 235.15820312 C-28.07532227 233.81145508 -28.07532227 233.81145508 -28.0625 232.4375 C-28.05798828 231.53580078 -28.05347656 230.63410156 -28.04882812 229.70507812 C-28.03700225 227.46998686 -28.0205222 225.23502563 -28 223 C-31.37548209 224.9976115 -34.66362796 227.09095958 -37.9375 229.25 C-53.79923569 239.33994507 -68.92090442 245.57265529 -87.9296875 242.53125 C-90.40969651 241.86568848 -92.65253011 241.03891404 -95 240 C-95.86625 239.62101563 -96.7325 239.24203125 -97.625 238.8515625 C-114.12940895 230.7400206 -125.48271341 215.90239906 -132 199 C-138.71071098 178.54626748 -139.50902542 158.65198588 -130 139 C-117.69220833 115.24309979 -95.26878156 98.06388536 -70 90 C-58.92261698 86.99621228 -48.11761712 87.56265568 -36.91015625 89.5625 C-34.21151029 89.96820248 -31.72119814 90.03209839 -29 90 C-28.9491937 82.29535749 -28.91422166 74.59075838 -28.89013672 66.88598633 C-28.88009355 64.26617824 -28.86645648 61.64638131 -28.84912109 59.02661133 C-28.82479915 55.25599405 -28.81349981 51.4855253 -28.8046875 47.71484375 C-28.79436493 46.54791489 -28.78404236 45.38098602 -28.77340698 44.17869568 C-28.7726172 38.42447712 -28.82967247 33.37294007 -31 28 C-35.23141062 24.20805339 -39.36103501 23.26292698 -44.875 22.75 C-45.90753906 22.63398437 -45.90753906 22.63398437 -46.9609375 22.515625 C-48.63906865 22.32916598 -50.31937988 22.16250271 -52 22 C-52 19.36 -52 16.72 -52 14 C-48.72745227 12.60740328 -45.64041438 11.61759171 -42.1484375 10.95703125 C-41.22337402 10.77358154 -40.29831055 10.59013184 -39.34521484 10.40112305 C-38.36504395 10.20687744 -37.38487305 10.01263184 -36.375 9.8125 C-27.5876152 8.0090092 -19.3414317 5.60821979 -11.02880859 2.2355957 C-3.94308189 -0.60831932 -3.94308189 -0.60831932 0 0 Z " fill="#FDFDFD" transform="translate(1025,685)"/>
<path d="M0 0 C2.74876034 1.34136949 3.06735143 2.84370544 4.140625 5.68432617 C4.77677734 7.32860596 4.77677734 7.32860596 5.42578125 9.00610352 C5.77406982 9.93879059 5.77406982 9.93879059 6.12939453 10.89031982 C6.94832462 13.07665041 7.79057447 15.25301659 8.63671875 17.42895508 C10.74231372 22.85637268 12.81640563 28.29563851 14.890625 33.73510742 C15.68238174 35.80743191 16.47429651 37.87969604 17.26635742 39.9519043 C19.37807991 45.47799383 21.4875883 51.00492601 23.59661865 56.53204346 C25.73114492 62.12494325 27.86763783 67.71709164 30.00390625 73.30932617 C36.21434235 89.5685052 42.42125383 105.8290297 48.62548828 122.09057617 C53.49006529 134.84074082 58.35661971 147.59014199 63.22920227 160.33724976 C65.60455149 166.55245932 67.97515965 172.76944445 70.34115601 178.98822021 C71.7390834 182.6600706 73.14078324 186.33047212 74.54351807 190.00048828 C75.18302054 191.67611567 75.82088437 193.35236952 76.45697021 195.02929688 C77.31853751 197.30010521 78.18587673 199.56862504 79.0546875 201.83666992 C79.30055603 202.48910675 79.54642456 203.14154358 79.79974365 203.81375122 C82.64770972 211.20549869 84.99315765 214.51785803 92.109375 217.85620117 C95.67718533 219.22419586 99.18935796 219.97545188 102.95703125 220.56323242 C104.890625 220.92260742 104.890625 220.92260742 105.890625 221.92260742 C105.96268011 223.60869708 105.97448568 225.29761401 105.953125 226.98510742 C105.94410156 227.90420898 105.93507813 228.82331055 105.92578125 229.77026367 C105.90837891 230.83567383 105.90837891 230.83567383 105.890625 231.92260742 C105.3477182 231.89231445 104.8048114 231.86202148 104.24545288 231.83081055 C87.32602557 230.91808517 70.45580336 230.83043389 53.515625 230.92260742 C48.48698187 230.94913713 43.45837364 230.96906573 38.4296875 230.98510742 C37.2820694 230.99340576 36.13445129 231.0017041 34.95205688 231.01025391 C33.90520721 231.01355713 32.85835754 231.01686035 31.77978516 231.02026367 C30.85654449 231.02550049 29.93330383 231.0307373 28.98208618 231.03613281 C26.890625 230.92260742 26.890625 230.92260742 25.890625 229.92260742 C25.62769444 225.89100551 25.59657656 224.36368008 27.890625 220.92260742 C30.5498352 220.23881051 33.06530069 219.71818891 35.765625 219.29760742 C41.87181894 218.32041297 41.87181894 218.32041297 47.890625 216.92260742 C46.19164432 192.79708177 34.68973649 165.5208304 23.890625 143.92260742 C-0.859375 143.92260742 -25.609375 143.92260742 -51.109375 143.92260742 C-52.099375 147.22260742 -53.089375 150.52260742 -54.109375 153.92260742 C-54.92022934 156.16297024 -55.75870545 158.39365819 -56.6328125 160.61010742 C-57.09453857 161.79467529 -57.55626465 162.97924316 -58.03198242 164.19970703 C-58.51127197 165.42826416 -58.99056152 166.65682129 -59.484375 167.92260742 C-68.39218642 190.72325399 -68.39218642 190.72325399 -70.109375 214.92260742 C-62.62816586 219.34716001 -55.71978923 221.01837897 -47.109375 221.92260742 C-47.109375 225.22260742 -47.109375 228.52260742 -47.109375 231.92260742 C-48.16552002 231.85114502 -49.22166504 231.77968262 -50.30981445 231.70605469 C-64.64152802 230.80842799 -78.94193295 230.8075978 -93.296875 230.86010742 C-95.71549386 230.86513708 -98.13411373 230.86969737 -100.55273438 230.8737793 C-106.40497072 230.88465806 -112.25716788 230.90127777 -118.109375 230.92260742 C-118.13626716 229.4435385 -118.15572121 227.96433259 -118.171875 226.48510742 C-118.18927734 225.24954102 -118.18927734 225.24954102 -118.20703125 223.98901367 C-118.109375 221.92260742 -118.109375 221.92260742 -117.109375 220.92260742 C-113.65842063 220.16385454 -110.19245819 219.50351676 -106.72265625 218.83666992 C-101.66334386 217.55680062 -98.25895375 216.44590854 -95.0546875 212.19995117 C-91.46002241 205.60458925 -88.08101213 198.9555818 -84.984375 192.11010742 C-84.68418457 191.44938232 -84.38399414 190.78865723 -84.07470703 190.10791016 C-81.9184843 185.18328242 -80.11491912 180.15476556 -78.3515625 175.07885742 C-75.28141463 166.25347866 -71.88670737 157.57423577 -68.42214966 148.89730835 C-66.54390791 144.19240042 -64.67718127 139.48291841 -62.80859375 134.77416992 C-62.4208226 133.79782089 -62.03305145 132.82147186 -61.63352966 131.8155365 C-57.44401628 121.2609863 -53.30535821 110.68669873 -49.171875 100.11010742 C-48.4255668 98.20164854 -47.67922883 96.29320131 -46.93286133 94.38476562 C-43.45155983 85.48151659 -39.97400516 76.57681123 -36.49995422 67.67073059 C-34.90073528 63.5718315 -33.30016665 59.4734601 -31.69943237 55.37515259 C-30.59327733 52.54147784 -29.48910071 49.70703806 -28.38500977 46.87255859 C-26.66438922 42.45885797 -24.92403634 38.05322175 -23.17889404 33.64916992 C-22.04272885 30.75270404 -20.935705 27.84592367 -19.82861328 24.93823242 C-19.05962145 22.96400044 -18.28994609 20.99003454 -17.51953125 19.01635742 C-17.18150986 18.10865601 -16.84348846 17.20095459 -16.495224 16.26574707 C-13.85734842 9.60047226 -10.36609074 4.35575951 -4.02406311 0.7306366 C-2.109375 -0.07739258 -2.109375 -0.07739258 0 0 Z " fill="#FBFBFB" transform="translate(1975.109375,695.077392578125)"/>
<path d="M0 0 C0.98684784 0.0064856 1.97369568 0.01297119 2.990448 0.01965332 C25.16606097 0.16948703 46.27400694 2.66911103 67.9375 7.4375 C70.36943318 19.39019284 72.47563284 31.36866285 74.25 43.4375 C74.43336914 44.64760742 74.61673828 45.85771484 74.80566406 47.10449219 C75.05074707 48.81620605 75.05074707 48.81620605 75.30078125 50.5625 C75.44813721 51.57570313 75.59549316 52.58890625 75.74731445 53.6328125 C75.94114247 56.49121592 75.73737598 58.69195521 74.9375 61.4375 C71.85286475 63.83666075 68.73588953 63.85036843 64.9375 63.4375 C62.78196875 60.20420313 62.21610837 57.82049741 61.3125 54.0625 C57.5969296 40.74149204 49.45512516 28.59924208 37.30078125 21.58984375 C19.38939575 12.85619297 -3.85802004 8.69226216 -23.2734375 14.46875 C-24.19382812 14.7884375 -25.11421875 15.108125 -26.0625 15.4375 C-27.04476562 15.7778125 -28.02703125 16.118125 -29.0390625 16.46875 C-52.91839631 25.60089833 -69.03063446 44.66491734 -79.21484375 67.45263672 C-91.90168816 97.16002296 -91.53988912 131.88509252 -79.8371582 161.90405273 C-78.94000092 164.09508237 -78.01222979 166.26878975 -77.0625 168.4375 C-76.78003418 169.08928223 -76.49756836 169.74106445 -76.20654297 170.41259766 C-67.05202955 191.10254703 -51.6661582 207.16697424 -31 216.3125 C-29.03418564 217.05708761 -27.05461468 217.7664442 -25.0625 218.4375 C-24.11761719 218.75589844 -23.17273438 219.07429687 -22.19921875 219.40234375 C-3.99654402 224.52553495 17.99437898 222.66880664 34.9375 214.4375 C54.41603501 202.62138207 61.46278346 187.363368 67.9375 166.4375 C73.20094268 165.25142544 75.15869379 166.09494794 79.9375 168.4375 C79.27126284 182.96147018 77.10304154 206.55626541 67.71875 218.1875 C64.55284157 220.74868435 61.68126775 222.06314393 57.875 223.5 C57.21016602 223.75112549 56.54533203 224.00225098 55.86035156 224.26098633 C54.514086 224.76510951 53.16529734 225.26255059 51.81396484 225.75292969 C50.18659552 226.34662518 48.57061281 226.97135634 46.95703125 227.6015625 C37.91323821 230.94355654 28.46288201 232.2327671 18.9375 233.4375 C17.79595459 233.58215698 17.79595459 233.58215698 16.63134766 233.72973633 C-17.7106517 237.62727511 -52.50437194 232.41100882 -80.21289062 210.56030273 C-102.81496688 192.01065396 -118.94174189 166.63846106 -122.80322266 137.21337891 C-124.30342562 121.15188393 -124.45997147 104.05916276 -120.0625 88.4375 C-119.7221875 87.20902344 -119.381875 85.98054687 -119.03125 84.71484375 C-112.31938591 62.78790936 -99.3923893 40.55899635 -81.0625 26.4375 C-79.55429687 25.26767578 -79.55429687 25.26767578 -78.015625 24.07421875 C-54.68843597 6.47515433 -28.9284097 -0.36654079 0 0 Z " fill="#FBFBFB" transform="translate(603.0625,693.5625)"/>
<path d="M0 0 C1.01416992 0.00829834 2.02833984 0.01659668 3.07324219 0.02514648 C17.13196508 0.34118657 29.51717357 4.64004457 39.5 15 C48.76548566 26.4311534 52.87809586 39.87480796 51.75 54.4375 C50.73690457 58.68417399 49.47584571 60.95360286 45.75 63.4375 C43.26153505 63.73698027 40.87381268 63.9087627 38.375 64 C37.16275757 64.05305298 37.16275757 64.05305298 35.92602539 64.10717773 C32.86774288 64.23231294 29.80916489 64.33615397 26.75 64.4375 C25.4398291 64.48261719 24.1296582 64.52773438 22.77978516 64.57421875 C0.43276157 65.33033613 -21.8913233 65.57752447 -44.25 65.4375 C-43.0582481 85.94571397 -39.05209543 104.93278515 -23.25 119.4375 C-11.47703856 129.34052591 1.56326358 132.30824751 16.68408203 131.62109375 C29.97469471 130.43998518 40.39279793 123.35228117 49.75 114.4375 C51.235 114.9325 51.235 114.9325 52.75 115.4375 C53.87281317 118.48513574 54.06867589 120.62952972 52.8671875 123.67578125 C45.22303898 137.36972731 32.44351035 147.43597043 17.875 152.9375 C0.27983916 157.75955991 -19.01074174 155.03535677 -34.85546875 146.44921875 C-50.7290709 137.04196316 -61.48356949 122.23922173 -66.6953125 104.609375 C-66.87835937 103.89265625 -67.06140625 103.1759375 -67.25 102.4375 C-67.45367188 101.65890625 -67.65734375 100.8803125 -67.8671875 100.078125 C-72.70824034 78.19391352 -67.68163908 55.86671658 -56.5625 36.75 C-43.85365254 17.00763009 -24.43350894 -0.25764328 0 0 Z " fill="#FBFBFB" transform="translate(1556.25,773.5625)"/>
<path d="M0 0 C14.23049026 12.65614004 24.69880513 30.59541656 25.87109375 49.93066406 C26.78125537 75.51530721 22.032322 97.30123793 5.03125 117.16796875 C-7.11892323 129.89231175 -24.2464359 139.10880348 -42.11328125 139.68359375 C-43.77342358 139.69215798 -45.43369045 139.68662833 -47.09375 139.66796875 C-47.9703125 139.66120117 -48.846875 139.65443359 -49.75 139.64746094 C-69.96580214 139.32645669 -87.90832546 132.84143135 -102.45703125 118.4921875 C-118.43206689 101.73708908 -122.9793788 80.12722079 -122.52734375 57.64453125 C-121.75305782 36.51153317 -113.27806373 17.141476 -97.84765625 2.54296875 C-70.22587375 -20.32803533 -28.6456435 -22.98581877 0 0 Z M-72.28125 1.41796875 C-72.91160156 1.84078125 -73.54195312 2.26359375 -74.19140625 2.69921875 C-85.6965595 11.39762033 -89.4886728 25.77639989 -91.86889648 39.31298828 C-93.96756319 55.11573738 -93.78391794 72.35036919 -88.28125 87.41796875 C-87.90323242 88.484104 -87.90323242 88.484104 -87.51757812 89.57177734 C-84.30405042 98.50530729 -80.85725016 106.41309901 -74.28125 113.41796875 C-73.39179687 114.45824219 -73.39179687 114.45824219 -72.484375 115.51953125 C-66.22589568 122.42454769 -57.54132969 127.60237969 -48.16015625 128.65625 C-37.96908152 128.98277685 -28.07124142 126.24230201 -20.2734375 119.515625 C-7.83079341 106.41425269 -3.87665357 88.59752125 -4.03125 71.10546875 C-4.03801758 69.99969482 -4.04478516 68.8939209 -4.05175781 67.75463867 C-4.1485413 60.11830902 -4.5180778 52.87366835 -6.28125 45.41796875 C-6.53777344 44.2990625 -6.79429687 43.18015625 -7.05859375 42.02734375 C-11.28348948 25.56294322 -19.4385834 9.57620985 -34.28125 0.41796875 C-45.86977715 -5.89113246 -61.3671343 -6.33951235 -72.28125 1.41796875 Z " fill="#FCFCFC" transform="translate(834.28125,788.58203125)"/>
<path d="M0 0 C1.24523438 0.1071936 1.24523438 0.1071936 2.515625 0.21655273 C16.3361018 1.25110072 30.14847796 1.11065866 44 1.0625 C46.52864494 1.05747384 49.05729086 1.05291291 51.5859375 1.04882812 C57.72397982 1.03791356 63.86198526 1.02126433 70 1 C70 3.97 70 6.94 70 10 C69.10796875 10.12117187 68.2159375 10.24234375 67.296875 10.3671875 C66.12640625 10.53476562 64.9559375 10.70234375 63.75 10.875 C62.58984375 11.03742187 61.4296875 11.19984375 60.234375 11.3671875 C57.41806687 11.91820431 55.44782443 12.55796482 53 14 C53.53973087 20.78115699 55.974336 26.60175904 58.48828125 32.87890625 C58.94332031 34.03240067 59.39835937 35.18589508 59.8671875 36.37434387 C61.09005189 39.46977779 62.31954493 42.56240624 63.5524025 45.653862 C64.81978435 48.83631314 66.0787031 52.02210875 67.33862305 55.20751953 C69.78227993 61.38140151 72.23589571 67.55126465 74.69335938 73.71966553 C75.86341647 76.65710567 77.03183385 79.59518851 78.19921875 82.53369141 C83.23106194 95.93385285 83.23106194 95.93385285 89 109 C94.09597567 95.8605645 99.19128143 82.72086948 104.28549194 69.58074951 C106.52443166 63.80562098 108.76376482 58.03064552 111.00378418 52.25593567 C112.12443253 49.36652761 113.24451297 46.47689972 114.36437988 43.58718872 C114.86925764 42.28474428 115.37438243 40.98239556 115.87976074 39.68014526 C116.56892801 37.90420312 117.25714904 36.12789386 117.9453125 34.3515625 C118.32187988 33.38041504 118.69844727 32.40926758 119.08642578 31.40869141 C120.75623642 27.00613884 121.49030665 23.7396309 121 19 C116.73607495 13.13710305 110.940239 11.4667046 104.0625 10.375 C103.051875 10.25125 102.04125 10.1275 101 10 C100 9 100 9 99.875 5.5 C100 2 100 2 101 1 C102.93306498 0.90603943 104.86958838 0.88256483 106.80493164 0.88647461 C108.04614273 0.88655014 109.28735382 0.88662567 110.56617737 0.88670349 C111.9308374 0.89181089 113.29549702 0.8970269 114.66015625 0.90234375 C116.04878183 0.904208 117.43740807 0.90563187 118.82603455 0.90663147 C122.48721115 0.91045613 126.1483483 0.92028597 129.80950928 0.93133545 C133.54292263 0.94155068 137.27634234 0.94612933 141.00976562 0.95117188 C148.33986177 0.96190829 155.66992536 0.97898409 163 1 C163.125 7.75 163.125 7.75 162 10 C158.60025767 11.04362063 155.16537354 11.86367746 151.7109375 12.70703125 C145.7348591 14.78922278 141.59472968 17.18845758 138.76171875 23.0078125 C138.04918002 24.70482256 137.35967892 26.41160276 136.6875 28.125 C136.28345947 29.10162598 135.87941895 30.07825195 135.46313477 31.08447266 C134.51618194 33.37526168 133.57801197 35.6696921 132.64648438 37.96679688 C130.78739127 42.54104658 128.87057541 47.09059573 126.953125 51.640625 C122.66768376 61.81779507 118.41320276 72.00768642 114.16644287 82.2010498 C113.02797055 84.93288297 111.88841395 87.66426125 110.74853516 90.39550781 C103.26750654 108.32510484 95.83760015 126.27299008 88.625 144.3125 C88.3377002 145.03042725 88.05040039 145.74835449 87.75439453 146.48803711 C84.79779892 153.88288399 81.87645464 161.2890154 79.0390625 168.73046875 C60.21559502 217.93681413 60.21559502 217.93681413 39.0625 227.4375 C32.75826443 229.7121231 26.99298139 229.99766046 20.625 227.875 C17.28874317 225.49195941 15.76291549 223.7292443 14 220 C13.20328089 215.0001811 13.35515089 211.37402465 15.5234375 206.75390625 C18.29748216 203.66920359 19.81516613 203.27627618 23.8894043 203.01635742 C24.62715088 202.99033447 25.36489746 202.96431152 26.125 202.9375 C35.85230124 202.19925349 44.17366666 199.38321842 51 192 C57.42590244 184.39961539 61.87619504 175.98430701 66.05517578 167.02539062 C66.6783187 165.68957831 67.30935174 164.35741451 67.94873047 163.02929688 C68.84005506 161.17398279 69.70532122 159.30879505 70.5625 157.4375 C71.05878906 156.36371094 71.55507812 155.28992188 72.06640625 154.18359375 C74.21479295 146.8575052 70.70221548 140.14102719 67.94921875 133.3984375 C67.53925156 132.3770166 67.12928436 131.3555957 66.70689392 130.30322266 C65.37486914 126.99062028 64.0315664 123.68273281 62.6875 120.375 C61.7636754 118.08694697 60.84033751 115.79869736 59.91748047 113.51025391 C57.67894077 107.96637738 55.43035317 102.42665855 53.17608643 96.88916016 C52.15090597 94.37071383 51.12750826 91.85155535 50.10498047 89.33203125 C43.19658162 72.32665387 35.94848657 55.47185457 28.50421143 38.69494629 C27.02438442 35.35515727 25.57677997 32.00506754 24.16650391 28.63525391 C23.85993362 27.91138992 23.55336334 27.18752594 23.23750305 26.44172668 C22.65045849 25.05368747 22.07086472 23.66246413 21.50016785 22.2676239 C19.86895824 18.43539671 18.25044983 15.63780799 15 13 C11.83754459 11.9458482 9.13051782 11.68724328 5.8125 11.4375 C4.72582031 11.35371094 3.63914062 11.26992188 2.51953125 11.18359375 C1.68808594 11.12300781 0.85664062 11.06242188 0 11 C0 7.37 0 3.74 0 0 Z " fill="#FBFBFB" transform="translate(1623,776)"/>
<path d="M0 0 C0.125 7.75 0.125 7.75 -1 10 C-3.51171875 10.5625 -3.51171875 10.5625 -6.6875 11 C-11.01509137 11.60359929 -14.87114197 12.5780177 -19 14 C-12.34159729 31.00324428 -5.67496567 48.00325087 1 65 C1.43481689 66.10732483 1.86963379 67.21464966 2.31762695 68.35552979 C4.732436 74.50395737 7.15033855 80.6511516 9.57302856 86.79647827 C10.31602809 88.68220655 11.05811399 90.56829507 11.79928589 92.45474243 C12.82594008 95.06717214 13.8558658 97.67828731 14.88671875 100.2890625 C15.18995056 101.06264603 15.49318237 101.83622955 15.80560303 102.633255 C16.97805563 106.072129 16.97805563 106.072129 19 109 C19.3810791 107.97156982 19.7621582 106.94313965 20.15478516 105.88354492 C28.70207154 82.84215534 37.49325191 59.92150848 46.72583008 37.14575195 C47.14630615 36.10765381 47.56678223 35.06955566 48 34 C48.37938721 33.09282227 48.75877441 32.18564453 49.1496582 31.25097656 C50.16775481 28.55592898 50.33500479 26.31315558 50.375 23.4375 C50.40335938 22.50808594 50.43171875 21.57867188 50.4609375 20.62109375 C49.84319975 17.10836469 48.87238349 16.10063022 46 14 C43.39764831 13.11950507 40.97320211 12.41248706 38.3125 11.8125 C31.08952703 10.08952703 31.08952703 10.08952703 30 9 C29.85884839 6.32941149 29.95752893 3.67567762 30 1 C30.83326561 1.00333092 30.83326561 1.00333092 31.68336487 1.00672913 C37.54110054 1.02910215 43.39882379 1.04403793 49.2565918 1.05493164 C51.43368016 1.05991574 53.61076525 1.06670544 55.7878418 1.07543945 C67.90260698 1.12277363 79.92596696 1.07949474 92 0 C92 3.3 92 6.6 92 10 C91.2265625 10.15855469 90.453125 10.31710937 89.65625 10.48046875 C81.07806904 12.40206622 74.16439441 14.59506397 69 22 C68.32074978 23.36944688 67.69165155 24.76467201 67.10913086 26.17797852 C66.59493088 27.41338631 66.59493088 27.41338631 66.07034302 28.67375183 C65.70552826 29.56645279 65.3407135 30.45915375 64.96484375 31.37890625 C64.57424774 32.32135696 64.18365173 33.26380768 63.78121948 34.2348175 C62.49474795 37.34191059 61.21616791 40.45218831 59.9375 43.5625 C59.03731918 45.74065211 58.13651359 47.91854611 57.23510742 50.09619141 C55.84922003 53.44440745 54.46373199 56.79278187 53.08033752 60.14202881 C50.16683493 67.19393442 47.23235203 74.23656387 44.2734375 81.26953125 C43.90039993 82.15627533 43.52736237 83.04301941 43.14302063 83.95663452 C42.40061615 85.72125317 41.65820996 87.4858711 40.915802 89.25048828 C29.73326928 115.85126315 18.68738694 142.52394953 8.4375 169.5 C-9.25743682 215.89673035 -9.25743682 215.89673035 -28.45703125 226.3359375 C-35.48721155 229.45800182 -42.14592217 230.47155699 -49.4375 227.6875 C-53.00239205 225.33988816 -54.63835046 224.08494861 -56 220 C-56.14391128 218.21217914 -56.22052009 216.41836132 -56.25 214.625 C-56.28867188 213.22121094 -56.28867188 213.22121094 -56.328125 211.7890625 C-55.92640702 208.37445965 -55.2569275 206.60738208 -53 204 C-50.06640625 203.46875 -50.06640625 203.46875 -46.5625 203.5 C-35.39447062 203.06203806 -26.65106235 199.15072356 -19 191 C-18.54334961 190.51571533 -18.08669922 190.03143066 -17.61621094 189.5324707 C-13.56154238 185.04762432 -10.73070457 180.31202061 -8 174.9375 C-7.57356201 174.10839111 -7.14712402 173.27928223 -6.70776367 172.42504883 C-4.1465874 167.39238351 -1.63674909 162.33435451 0.6875 157.1875 C1.16574219 156.12917969 1.64398437 155.07085938 2.13671875 153.98046875 C3.59808827 148.93510702 2.01273383 144.59264682 0.10498047 139.84130859 C-0.2875441 138.85549805 -0.68006866 137.8696875 -1.08448792 136.85400391 C-1.72715858 135.26724854 -1.72715858 135.26724854 -2.3828125 133.6484375 C-2.82910507 132.53339844 -3.27539764 131.41835938 -3.73521423 130.26953125 C-4.94212973 127.25889382 -6.15457596 124.25056752 -7.37025833 121.24346161 C-8.12704676 119.36993299 -8.88174594 117.49557684 -9.63571167 115.62091064 C-21.8770862 85.18411529 -34.15139973 54.75039324 -48 25 C-48.4434375 24.03360596 -48.886875 23.06721191 -49.34375 22.0715332 C-49.76914063 21.17523193 -50.19453125 20.27893066 -50.6328125 19.35546875 C-51.00035645 18.57324951 -51.36790039 17.79103027 -51.74658203 16.98510742 C-53.97979501 13.44824441 -57.06440669 12.08159036 -61 11 C-64.03092371 10.45876362 -66.91671717 10.19270518 -70 10 C-70 7.03 -70 4.06 -70 1 C-69.31841324 1.00222061 -68.63682648 1.00444122 -67.93458557 1.00672913 C-60.81259691 1.02892778 -53.69061815 1.04396727 -46.56860352 1.05493164 C-43.91396124 1.05937963 -41.25937348 1.06676042 -38.60473633 1.07543945 C-34.77945273 1.08762874 -30.95420579 1.09325664 -27.12890625 1.09765625 C-25.36118614 1.10539818 -25.36118614 1.10539818 -23.55775452 1.11329651 C-15.6852577 1.11382719 -7.82339342 -0.25236753 0 0 Z " fill="#FCFCFC" transform="translate(1124,776)"/>
<path d="M0 0 C4.66128214 5.2699719 5.1546306 8.53287103 5.17700195 15.40942383 C5.18357315 16.27950577 5.19014435 17.14958771 5.19691467 18.04603577 C5.21666819 20.93303508 5.22831463 23.81998234 5.23828125 26.70703125 C5.24235678 27.69188696 5.2464323 28.67674267 5.25063133 29.69144249 C5.2715005 34.90374925 5.28579874 40.11602962 5.29516602 45.32836914 C5.30623423 50.71554524 5.34063656 56.10230872 5.38033772 61.48933887 C5.40646701 65.62860387 5.41485456 69.76776999 5.41844749 73.90711021 C5.42332274 75.8930509 5.4349633 77.87898689 5.45348549 79.86484718 C5.47779921 82.64436278 5.47692619 85.42280349 5.4699707 88.20239258 C5.48278076 89.02284058 5.49559082 89.84328857 5.50878906 90.68859863 C5.47287031 94.62640323 5.29351836 96.53933648 3.12565613 99.94169617 C-4.9067306 107.7195734 -14.96957987 109.99381387 -25.75 110.375 C-38.49753381 110.14147837 -48.70879413 105.85547644 -57.9609375 97.15625 C-71.41880507 82.81686272 -75.70882378 63.33956523 -75.25 44.24609375 C-74.48743229 27.3742832 -67.97650602 11.20570785 -55.5625 -0.375 C-39.80416358 -13.68622274 -16.58526228 -11.14242079 0 0 Z " fill="#020202" transform="translate(992,797)"/>
<path d="M0 0 C0.77251602 0.00359528 1.54503204 0.00719055 2.34095764 0.01089478 C3.55549622 0.01067574 3.55549622 0.01067574 4.79457092 0.01045227 C7.48380671 0.01115163 10.17297412 0.01894507 12.86219788 0.02676392 C14.72164878 0.02862802 16.58110018 0.03005196 18.44055176 0.03105164 C23.34458258 0.03487746 28.24858398 0.04470829 33.15260315 0.05575562 C38.15280255 0.06596836 43.15300669 0.07054896 48.1532135 0.07559204 C57.97158583 0.0863305 67.78993629 0.10340769 77.60829163 0.12442017 C77.73329163 7.87442017 77.73329163 7.87442017 76.60829163 10.12442017 C73.88402003 10.55362707 71.22504353 10.87683722 68.48329163 11.12442017 C62.95321453 11.63928941 57.9106258 12.43667454 52.60829163 14.12442017 C51.79223262 19.11570629 51.46341109 23.95085305 51.47457886 29.01161194 C51.47118052 30.15755305 51.47118052 30.15755305 51.46771353 31.32664448 C51.46141514 33.87049877 51.4622002 36.41429921 51.46302795 38.9581604 C51.46003392 40.78855457 51.45663082 42.61894811 51.45285034 44.44934082 C51.44403233 49.41005243 51.44167319 54.37074679 51.44103456 59.33146548 C51.44032295 62.43267479 51.43818657 65.53387974 51.43553734 68.63508797 C51.42629211 79.45941572 51.42220154 90.28373117 51.42298889 101.10806274 C51.42358989 111.19016479 51.4130317 121.27221336 51.39724523 131.35430187 C51.38416318 140.01861778 51.37880526 148.68291623 51.3794443 157.34724194 C51.37969904 162.51848009 51.37686112 167.68967068 51.36626625 172.86089897 C51.35657379 177.72414334 51.35651399 182.58729477 51.36378288 187.45054245 C51.3648272 189.23229038 51.36247492 191.01404413 51.35642242 192.79578209 C51.34867801 195.23404487 51.35336332 197.67198859 51.36105347 200.11024475 C51.3559099 200.80977451 51.35076634 201.50930427 51.34546691 202.23003191 C51.37988221 207.19167176 52.14778886 211.41301959 53.60829163 216.12442017 C57.56660084 218.89674742 63.13054687 218.75541965 67.85829163 219.18692017 C76.48361407 219.99974261 76.48361407 219.99974261 77.60829163 221.12442017 C77.70619732 222.62180141 77.73804027 224.12384909 77.73329163 225.62442017 C77.73715881 226.84645142 77.73715881 226.84645142 77.74110413 228.09317017 C77.60829163 230.12442017 77.60829163 230.12442017 76.60829163 231.12442017 C71.81863492 231.27892522 67.19698417 231.11956733 62.43299866 230.62490845 C57.03727679 230.11913363 51.70452212 229.97906576 46.28797913 229.99160767 C45.34503998 229.99065094 44.40210083 229.98969421 43.43058777 229.9887085 C41.4491316 229.98803323 39.46767313 229.98984148 37.48622131 229.99404907 C34.51123366 229.99937019 31.53639946 229.99410029 28.56141663 229.98770142 C17.20690374 229.98415778 5.93286482 230.29153566 -5.39170837 231.12442017 C-6.87003097 228.16777497 -6.4520362 225.3821228 -6.39170837 222.12442017 C-1.12568566 220.2181676 3.95633846 219.41655062 9.48719788 218.68692017 C13.73837528 217.92481169 13.73837528 217.92481169 17.60829163 216.12442017 C19.61428934 211.50228342 19.89109657 207.19296707 19.85552979 202.23013306 C19.8579442 201.45336495 19.86035862 200.67659685 19.8628462 199.87629032 C19.86846521 197.28313251 19.8598337 194.69022302 19.85121155 192.09707642 C19.85228488 190.23402846 19.85422432 188.37098082 19.85696411 186.50793457 C19.86180744 181.45429613 19.85416301 176.40074613 19.84401107 171.34711838 C19.8352212 166.05682223 19.8369882 160.76652877 19.83737183 155.47622681 C19.83643555 146.59234133 19.82775661 137.70849003 19.81410217 128.82461548 C19.79837707 118.55562384 19.7931041 108.28666963 19.79383773 98.01766682 C19.79451342 87.08247449 19.7875707 76.14729659 19.77839112 65.21210861 C19.77626062 62.06228328 19.77555005 58.91246027 19.77515221 55.76263428 C19.77414695 50.81160236 19.76803533 45.8606018 19.75798607 40.90958023 C19.75506772 39.0931327 19.75383435 37.27668156 19.7544136 35.46023178 C19.75490525 32.97969038 19.74923922 30.49923647 19.74200439 28.01870728 C19.743553 27.30099687 19.7451016 26.58328646 19.74669713 25.84382725 C19.72740897 21.83544038 19.37979775 18.05788992 18.60829163 14.12442017 C11.21366116 12.43026131 3.99109709 10.84160219 -3.59873962 10.43301392 C-4.19041931 10.33117798 -4.782099 10.22934204 -5.39170837 10.12442017 C-6.88277294 7.14229103 -6.51112304 4.40832359 -6.39170837 1.12442017 C-4.63731674 -0.62997146 -2.33673382 0.00459054 0 0 Z " fill="#FDFDFD" transform="translate(2100.3917083740234,695.8755798339844)"/>
<path d="M0 0 C0.33 0 0.66 0 1 0 C1.21914063 1.27230469 1.43828125 2.54460938 1.6640625 3.85546875 C6.30594396 29.95165563 11.69370679 57.17681797 34 74 C44.41438133 80.1628633 54.92029124 83.74182836 66.66601562 86.453125 C68.95815117 86.99019442 71.236892 87.56509753 73.515625 88.15625 C79.65977132 89.74353397 85.69436087 91.19158473 92 92 C92 92.66 92 93.32 92 94 C90.16501953 94.34611328 90.16501953 94.34611328 88.29296875 94.69921875 C51.44097679 101.21129994 51.44097679 101.21129994 21.75 122.5625 C9.19119074 141.21493269 3.79461106 163.95021167 1 186 C-1.7035794 183.2964206 -1.7703694 181.10966673 -2.515625 177.3671875 C-2.79639426 175.99687364 -3.07774787 174.6266794 -3.35961914 173.2565918 C-3.57716354 172.18192154 -3.57716354 172.18192154 -3.79910278 171.08554077 C-6.26202152 159.0109879 -8.77522514 147.23396631 -14 136 C-14.47050781 134.98679687 -14.94101562 133.97359375 -15.42578125 132.9296875 C-23.1681442 117.61191282 -35.24708736 109.84444671 -51 104 C-52.04929688 103.59007812 -53.09859375 103.18015625 -54.1796875 102.7578125 C-66.41703893 98.29020801 -79.20831373 96.26009228 -92 94 C-92 93.34 -92 92.68 -92 92 C-90.8140625 91.75765625 -89.628125 91.5153125 -88.40625 91.265625 C-49.21552567 84.17041907 -49.21552567 84.17041907 -19.375 59.9375 C-9.78229256 43.91331825 -5.31105672 26.29049462 -2.25537109 8.046875 C-2.10406738 7.14453125 -1.95276367 6.2421875 -1.796875 5.3125 C-1.66635742 4.50425781 -1.53583984 3.69601562 -1.40136719 2.86328125 C-1 1 -1 1 0 0 Z " fill="#FCFCFC" transform="translate(282,720)"/>
<path d="M0 0 C0.98492432 -0.00128906 1.96984863 -0.00257813 2.98461914 -0.00390625 C14.00852937 0.14960338 24.67550612 2.11216779 35.4375 4.375 C38.18630052 14.9082188 39.61272411 25.36865259 39.625 36.25 C39.6262085 37.29414062 39.6262085 37.29414062 39.62744141 38.359375 C39.57231174 43.24018826 39.57231174 43.24018826 38.4375 44.375 C33.05902013 44.8426939 33.05902013 44.8426939 30.875 43.19921875 C29.06975206 40.90831987 28.29678413 38.68255908 27.3125 35.9375 C23.57854187 26.65336845 18.14714537 18.53279807 9.4375 13.375 C3.1243297 11.2706099 -5.05092624 11.25746212 -11.41015625 13.28125 C-16.15420476 15.7522736 -19.09114254 18.53525831 -21.5625 23.375 C-23.69124467 30.21322773 -23.60201163 37.96065582 -20.8125 44.5625 C-14.3961799 55.57689144 -1.31950668 60.77054331 9.49145508 66.49609375 C24.64391567 74.5818245 40.83390321 84.13316372 46.4375 101.375 C48.40655584 116.08596263 43.46736565 126.83269032 35.1875 138.5625 C23.97024829 150.03468925 9.52023972 155.40186048 -6.30175781 155.85742188 C-16.3918869 155.92166748 -25.92995406 154.96394864 -35.8125 152.875 C-36.93720703 152.65650391 -38.06191406 152.43800781 -39.22070312 152.21289062 C-46.77684168 150.43908361 -46.77684168 150.43908361 -48.91552734 147.54248047 C-49.72094446 145.47535634 -50.19922486 143.56008909 -50.5625 141.375 C-50.79195312 140.51132812 -51.02140625 139.64765625 -51.2578125 138.7578125 C-52.93722978 129.93323808 -53.70737246 121.3570924 -53.5625 112.375 C-50.34798731 110.76774365 -47.12637464 111.31751815 -43.5625 111.375 C-43.294375 112.12523437 -43.02625 112.87546875 -42.75 113.6484375 C-37.78880223 126.60630272 -30.1438843 135.05454173 -18.4375 142.3125 C-11.74151105 144.79423017 -3.23052107 144.51480706 3.4921875 142.42578125 C9.74875504 139.4831523 13.39678384 136.03351209 16.1875 129.6875 C18.50594652 122.9232412 18.35141369 115.85370104 15.44921875 109.30078125 C8.55823523 96.18396706 -5.04920064 90.54793257 -17.7121582 84.04882812 C-24.15498858 80.69999753 -29.89196868 76.93132165 -35.5625 72.375 C-36.408125 71.73691406 -37.25375 71.09882812 -38.125 70.44140625 C-45.50647155 64.18371643 -49.96730381 55.63943986 -50.875 46.0859375 C-51.34908328 32.48567344 -47.11078669 23.56528014 -38.046875 13.73046875 C-27.79591058 3.91957098 -13.82067353 -0.01896978 0 0 Z " fill="#FBFBFB" transform="translate(1284.5625,773.625)"/>
<path d="M0 0 C0.99515625 -0.01224609 1.9903125 -0.02449219 3.015625 -0.03710938 C9.5685715 -0.04994152 15.49902072 0.74818503 21.875 2.1875 C24.24710039 2.5804246 26.62180882 2.95830131 29 3.3125 C30.11632813 3.48007812 31.23265625 3.64765625 32.3828125 3.8203125 C33.61644531 4.00207031 33.61644531 4.00207031 34.875 4.1875 C38.5747753 17.73007375 39.01170675 30.24341179 38.875 44.1875 C32.125 44.3125 32.125 44.3125 29.875 43.1875 C29.08636805 41.42120073 28.36924881 39.62274088 27.6875 37.8125 C23.55683367 27.63725157 18.46608846 19.07352353 9.12109375 13.05859375 C3.42528456 10.84961036 -4.98871359 11.16820692 -10.78125 13.05078125 C-13.11464186 14.20769723 -13.11464186 14.20769723 -16.125 16.1875 C-17.115 16.5175 -18.105 16.8475 -19.125 17.1875 C-20.26045562 19.48284258 -20.26045562 19.48284258 -21.125 22.1875 C-21.4653125 22.96222656 -21.805625 23.73695313 -22.15625 24.53515625 C-24.46819041 30.86502535 -23.88432108 37.35212859 -21.125 43.4375 C-14.34815549 55.2783602 -0.56815403 61.19266169 11.04296875 67.44140625 C25.07497706 75.02952365 40.77904765 84.06532331 45.875 100.1875 C46.32609488 103.09562964 46.39985698 105.93526865 46.375 108.875 C46.36927979 109.66447021 46.36355957 110.45394043 46.35766602 111.26733398 C45.96407182 124.27714619 39.41393702 134.10797063 30.1875 142.875 C16.06700399 154.73401032 -0.48243269 156.35593954 -18.125 155.1875 C-24.7239488 154.38479446 -31.27347475 153.17411572 -37.75244141 151.68847656 C-40.10069986 151.14738905 -40.10069986 151.14738905 -42.43115234 150.95996094 C-44.57421875 150.6796875 -44.57421875 150.6796875 -48.125 149.1875 C-49.8986607 146.00978966 -50.50469896 142.74916917 -51.125 139.1875 C-51.28919434 138.29466309 -51.45338867 137.40182617 -51.62255859 136.48193359 C-52.07562011 133.78462572 -52.45525439 131.08655273 -52.8125 128.375 C-52.94205078 127.46041016 -53.07160156 126.54582031 -53.20507812 125.60351562 C-54.44706243 116.56791549 -54.44706243 116.56791549 -54.125 113.1875 C-50.4808226 110.7580484 -48.41258728 111.02570425 -44.125 111.1875 C-43.61710937 112.26128906 -43.10921875 113.33507812 -42.5859375 114.44140625 C-36.18355321 127.77019114 -30.40874458 135.66450022 -16.71484375 142.3671875 C-10.58853711 144.30764662 -2.24527814 144.3945376 3.8125 142.0625 C8.98051904 138.89840671 14.3248767 135.4869018 16.4296875 129.4921875 C17.92836786 121.73585932 18.32999517 113.7245895 14.375 106.6875 C6.57141263 95.74080104 -5.34611476 89.92759133 -17.1875 84.25 C-30.04512575 77.91560227 -42.87860883 69.21265452 -49.046875 55.859375 C-51.92523039 46.05628057 -51.92383962 34.67910713 -47.5 25.375 C-46.43171859 23.61022886 -45.31131492 21.87519051 -44.125 20.1875 C-43.68027344 19.5171875 -43.23554687 18.846875 -42.77734375 18.15625 C-32.98482355 5.13762256 -15.47196954 0.00979239 0 0 Z " fill="#FBFBFB" transform="translate(1413.125,773.8125)"/>
<path d="M0 0 C-3.13892872 10.37211229 -9.98130296 19.76050497 -18 27 C-20.83894682 28.4004838 -23.38841833 29.08245752 -26.49609375 29.7421875 C-30.78406223 31.28145824 -32.59121164 33.4860291 -35.0625 37.125 C-35.74469604 38.09505981 -35.74469604 38.09505981 -36.44067383 39.0847168 C-50.45198268 59.48336155 -61.86221211 80.98282999 -68 105 C-68.30808594 106.20011719 -68.61617187 107.40023437 -68.93359375 108.63671875 C-78.26837408 147.0924406 -69.26771714 186.21981314 -52 221 C-51.47664063 222.07378906 -50.95328125 223.14757812 -50.4140625 224.25390625 C-28.87418847 266.0841036 19.87445378 282.76623176 61 299 C61.98355469 299.39123047 62.96710938 299.78246094 63.98046875 300.18554688 C66.31257787 301.10463073 68.65190174 301.99774262 71 302.875 C72.19625 303.32617188 73.3925 303.77734375 74.625 304.2421875 C82.79296733 306.07619868 90.09692892 302.80824184 97.6875 300 C98.78819824 299.59700684 99.88889648 299.19401367 101.02294922 298.77880859 C130.92207919 287.697554 161.52626281 274.83355318 186 254 C186.67160156 253.43152344 187.34320313 252.86304688 188.03515625 252.27734375 C189.8392071 250.60976956 191.41325751 248.87717304 193 247 C193.804375 246.04867187 194.60875 245.09734375 195.4375 244.1171875 C217.51440294 216.66785206 228.16122749 180.04911406 228.3125 145.3125 C228.31855759 144.26881256 228.31855759 144.26881256 228.32473755 143.20404053 C228.36083138 129.83985713 227.24756794 116.75634728 223.4375 103.875 C223.1799292 102.99666504 222.9223584 102.11833008 222.65698242 101.21337891 C215.5334261 77.84512092 203.62073328 57.25322856 189.15405273 37.71313477 C187.91774126 35.87789093 186.94862915 33.99695587 186 32 C184.989375 32.0825 183.97875 32.165 182.9375 32.25 C176.24693386 31.82520215 172.52993902 28.81057569 168.0625 24.125 C163.87356423 19.21468194 156 9.72917136 156 3 C166.59461719 3.94174375 175.14831937 7.86805676 183 15 C184.2065625 16.0828125 184.2065625 16.0828125 185.4375 17.1875 C187.12845735 20.23122323 187.20958603 21.89206874 187.5 25.3125 C188.45890385 32.27091733 191.80894838 36.26579367 196.05395508 41.58984375 C219.4276105 71.09843493 232.17912694 108.56194124 232.3125 145.9375 C232.31545074 146.66722015 232.31840149 147.39694031 232.32144165 148.14877319 C232.33142627 159.02351858 231.60154164 169.31032309 228.60253906 179.81201172 C228.15585038 181.43406359 227.7530039 183.06832557 227.37402344 184.70751953 C225.55744657 192.53781374 222.94269102 199.82710283 219.875 207.25 C219.14531006 209.02117187 219.14531006 209.02117187 218.40087891 210.828125 C212.58680178 224.68618011 206.04552083 236.70538639 196 248 C195.31550781 248.82757812 194.63101562 249.65515625 193.92578125 250.5078125 C169.96837365 278.76072571 128.50328701 293.66683308 95.1159668 308.02294922 C93.06067937 308.82414044 93.06067937 308.82414044 92 310 C105.55480466 314.10178746 119.06791715 317.45601065 133 320 C132.5020163 323.73487777 132.12508244 325.81237635 130 329 C122.91933587 329.86270161 117.00660112 327.69600812 110.375 325.375 C108.78582764 324.83456055 108.78582764 324.83456055 107.16455078 324.28320312 C100.20046233 321.87849115 93.4495622 319.20996868 86.8046875 316.03125 C81.73546449 314.16735742 77.59365724 314.86682254 72.65625 316.79296875 C71.66359131 317.17396729 70.67093262 317.55496582 69.64819336 317.94750977 C68.60928955 318.35670654 67.57038574 318.76590332 66.5 319.1875 C64.3452216 320.01346321 62.19027441 320.83898622 60.03515625 321.6640625 C58.02320122 322.4420976 56.01146165 323.22069025 54 324 C51.31779057 325.03709889 48.63185583 326.05683968 45.9375 327.0625 C44.93589844 327.44535156 43.93429688 327.82820313 42.90234375 328.22265625 C39.41850998 329.15574228 36.59087745 329.35657077 33 329 C31.00390625 327.5390625 31.00390625 327.5390625 29.5625 325.625 C29.06878906 324.99851562 28.57507813 324.37203125 28.06640625 323.7265625 C27 322 27 322 27 320 C28.27617187 319.76216797 28.27617187 319.76216797 29.578125 319.51953125 C37.29614309 318.03340224 44.93615485 316.34127318 52.5625 314.4375 C53.40651367 314.22778564 54.25052734 314.01807129 55.12011719 313.80200195 C58.58452621 312.92621871 61.95917298 312.01408652 65.33984375 310.84765625 C68 310 68 310 72 310 C72 309.34 72 308.68 72 308 C70.90957397 307.82368042 70.90957397 307.82368042 69.79711914 307.64379883 C66.95409894 306.98943518 64.82181539 306.05326652 62.24609375 304.69921875 C60.86248657 303.98463501 60.86248657 303.98463501 59.45092773 303.25561523 C58.45649658 302.73813721 57.46206543 302.22065918 56.4375 301.6875 C47.40875783 297.07364151 38.28365692 292.8670168 28.9375 288.9375 C8.11497835 280.15622709 -11.50336786 271.48100101 -29 257 C-29.83273438 256.36320312 -30.66546875 255.72640625 -31.5234375 255.0703125 C-54.56288486 235.81020666 -65.96539162 202.02119004 -73 174 C-73.21140625 173.16855469 -73.4228125 172.33710937 -73.640625 171.48046875 C-83.18638576 131.45645755 -71.10073385 88.32397812 -50.17333984 54.00439453 C-40.45597853 38.65999719 -40.45597853 38.65999719 -35.140625 32.77734375 C-32.73472947 29.655826 -32.41040845 28.05988626 -32.1875 24.1875 C-31.22483874 17.18001981 -28.4063251 13.44425465 -23 9 C-15.77864654 4.00722317 -8.91906835 0 0 0 Z " fill="#F2F2F2" transform="translate(204,666)"/>
<path d="M0 0 C2.86264417 1.43132209 2.95770606 3.10093908 4.02783203 6.08862305 C4.42229523 7.17874191 4.81675842 8.26886078 5.22317505 9.39201355 C5.64710541 10.58651627 6.07103577 11.78101898 6.5078125 13.01171875 C6.95212616 14.24549759 7.39643982 15.47927643 7.85421753 16.7504425 C9.04446689 20.05567056 10.2260586 23.36392989 11.40582275 26.6729126 C12.57558711 29.94970223 13.75276038 33.22382452 14.9296875 36.49804688 C16.30950596 40.33727047 17.68810372 44.17690521 19.05987549 48.01901245 C21.1653331 53.91139544 23.28586272 59.79659806 25.46386719 65.66259766 C25.84002167 66.67941116 26.21617615 67.69622467 26.60372925 68.74385071 C27.29998582 70.62089183 28.00141113 72.49602722 28.70901489 74.36882019 C29.01370697 75.19175064 29.31839905 76.01468109 29.63232422 76.86254883 C29.89826385 77.57034988 30.16420349 78.27815094 30.4382019 79.00740051 C31 81 31 81 31 85 C27.6818711 85.99796579 24.67891363 86.12104112 21.22167969 86.11352539 C20.0607782 86.11344986 18.89987671 86.11337433 17.70379639 86.11329651 C16.45576233 86.10813522 15.20772827 86.10297394 13.921875 86.09765625 C12.64016418 86.0962413 11.35845337 86.09482635 10.03790283 86.09336853 C6.6381636 86.08955901 3.2384674 86.07974214 -0.16125488 86.06866455 C-3.633539 86.05841674 -7.1058301 86.0538637 -10.578125 86.04882812 C-17.38543429 86.03811841 -24.19271508 86.02106084 -31 86 C-30.43414541 81.01299512 -29.34143781 76.71814536 -27.56323242 72.0300293 C-27.31591873 71.37207367 -27.06860504 70.71411804 -26.813797 70.03622437 C-26.00118545 67.87956947 -25.17846307 65.72693048 -24.35546875 63.57421875 C-23.78295392 62.06140965 -23.21104949 60.54836942 -22.63972473 59.03511047 C-21.13684948 55.05977233 -19.62522861 51.08781482 -18.11187744 47.11645508 C-16.88598838 43.8952282 -15.66613547 40.67173293 -14.44665051 37.4480772 C-4.07935906 10.04324088 -4.07935906 10.04324088 0 0 Z " fill="#030303" transform="translate(1962,738)"/>
<path d="M0 0 C7.70776679 4.58115945 12.12285365 11.80210797 14.83203125 20.23828125 C15.33506117 22.96901508 15.42356733 25.60306681 15.46484375 28.37890625 C15.490625 29.42175781 15.51640625 30.46460938 15.54296875 31.5390625 C15.21484375 34.31640625 15.21484375 34.31640625 14.06559753 35.96870422 C11.42941916 37.88834527 9.51610766 37.67703262 6.2746582 37.65698242 C5.05361893 37.65675583 3.83257965 37.65652924 2.57453918 37.65629578 C0.59631416 37.63306999 0.59631416 37.63306999 -1.421875 37.609375 C-2.78521763 37.60377868 -4.14856629 37.59950875 -5.51191711 37.59651184 C-9.09759217 37.58506574 -12.68290179 37.55560111 -16.26843262 37.5223999 C-19.92825375 37.49169364 -23.58813402 37.47800535 -27.24804688 37.46289062 C-34.42724981 37.43073074 -41.60615179 37.37953778 -48.78515625 37.31640625 C-47.00170285 23.96223106 -41.45720863 11.01991053 -30.578125 2.56640625 C-29.98644531 2.15390625 -29.39476562 1.74140625 -28.78515625 1.31640625 C-28.20378906 0.90390625 -27.62242188 0.49140625 -27.0234375 0.06640625 C-18.8487158 -4.86927478 -8.41611785 -3.91479064 0 0 Z " fill="#010101" transform="translate(1562.78515625,788.68359375)"/>
<path d="M0 0 C10.59461719 0.94174375 19.14831937 4.86805676 27 12 C27.804375 12.721875 28.60875 13.44375 29.4375 14.1875 C31.12845735 17.23122323 31.20958603 18.89206874 31.5 22.3125 C32.45890385 29.27091733 35.80894838 33.26579367 40.05395508 38.58984375 C63.4276105 68.09843493 76.17912694 105.56194124 76.3125 142.9375 C76.31692612 144.03208023 76.31692612 144.03208023 76.32144165 145.14877319 C76.3314265 156.02376772 75.60401625 166.31320883 72.60107422 176.81445312 C72.15734 178.42790103 71.75946776 180.05412536 71.38720703 181.68554688 C69.52824379 189.77263748 66.702023 197.23091327 63.5 204.875 C63.01402344 206.05835938 62.52804687 207.24171875 62.02734375 208.4609375 C57.41902336 219.61131491 57.41902336 219.61131491 55 224 C52.8125 224.875 52.8125 224.875 51 225 C52.25624442 220.92672263 53.81059606 217.14080705 55.61450195 213.29296875 C66.45404224 190.03732301 72.21278359 167.87373452 72.3125 142.3125 C72.31644775 141.61698029 72.32039551 140.92146057 72.32446289 140.2048645 C72.36075333 126.84031813 71.24768353 113.75673808 67.4375 100.875 C67.1799292 99.99666504 66.9223584 99.11833008 66.65698242 98.21337891 C59.5334261 74.84512092 47.62073328 54.25322856 33.15405273 34.71313477 C31.91774126 32.87789093 30.94862915 30.99695587 30 29 C28.989375 29.0825 27.97875 29.165 26.9375 29.25 C20.24693386 28.82520215 16.52993902 25.81057569 12.0625 21.125 C7.87356423 16.21468194 0 6.72917136 0 0 Z " fill="#E6E6E6" transform="translate(360,669)"/>
<path d="M0 0 C-4.72197571 12.82340462 -12.91244751 22.80018822 -25 29 C-28.70338204 30.23446068 -32.14660418 30.44981274 -36 30 C-39 28.5 -39 28.5 -41 27 C-38.51096941 17.49642867 -32.74765412 13.78331276 -24.63671875 8.96484375 C-17.29902726 4.88301537 -8.43467692 0 0 0 Z " fill="#F8F8F8" transform="translate(447,889)"/>
<path d="M0 0 C15.05706982 3.64570785 30.68264274 9.22800865 40.20703125 22.140625 C41 24 41 24 40.76953125 26.15625 C40 28 40 28 37.875 29.25 C31.48559815 30.91680048 25.76021951 30.22779868 20 27 C10.52901724 20.24795966 4.0264946 10.87153543 0 0 Z " fill="#F9F9F9" transform="translate(117,886)"/>
<path d="M0 0 C0.65880661 0.00141495 1.31761322 0.0028299 1.99638367 0.00428772 C4.08487637 0.00985125 6.17325886 0.02239678 8.26171875 0.03515625 C9.68424324 0.04017597 11.10676941 0.04473805 12.52929688 0.04882812 C16.00263952 0.05980868 19.47591836 0.0770479 22.94921875 0.09765625 C20.9160936 6.1970317 13.48334926 9.74611998 8.01953125 12.66015625 C0.28505426 16.25958045 -7.39210992 19.34988032 -16.05078125 18.09765625 C-19.64756508 16.773603 -22.38048234 15.14681976 -24.48828125 11.84765625 C-24.67390625 11.27015625 -24.85953125 10.69265625 -25.05078125 10.09765625 C-18.06604214 2.23982475 -10.36506924 -0.04410668 0 0 Z " fill="#F5F5F5" transform="translate(399.05078125,930.90234375)"/>
<path d="M0 0 C0 0.66 0 1.32 0 2 C-2.5607445 2.98397585 -5.12341492 3.96229967 -7.6875 4.9375 C-8.40873047 5.21529297 -9.12996094 5.49308594 -9.87304688 5.77929688 C-20.05316113 9.63751369 -31.7568143 11.12909328 -42.15625 7.0546875 C-45.36886412 5.21696332 -46.9939397 3.10615788 -49 0 C-49 -0.99 -49 -1.98 -49 -3 C-34.60725629 -12.59516247 -14.81075365 -5.28955488 0 0 Z " fill="#F9F9F9" transform="translate(382,962)"/>
<path d="M0 0 C1.23828125 2.109375 1.23828125 2.109375 2 4 C-1.43292249 8.68125794 -4.28927936 11.32395991 -10 13 C-13.01238374 13.45159561 -15.95701451 13.52332624 -19 13.5 C-19.82435547 13.49718018 -20.64871094 13.49436035 -21.49804688 13.49145508 C-29.60448158 13.28129404 -39.6068785 11.84398132 -45.90625 6.33203125 C-46.2671875 5.89246094 -46.628125 5.45289063 -47 5 C-34.47772654 -1.85408547 -13.14685727 -8.06260354 0 0 Z " fill="#F8F8F8" transform="translate(229,955)"/>
<path d="M0 0 C4.23173639 -0.07497625 8.46310588 -0.12898541 12.6953125 -0.16479492 C14.1306025 -0.17974586 15.56584791 -0.20011424 17.00097656 -0.22631836 C26.65252569 -0.39794633 35.58139409 -0.31751382 44.0625 4.875 C46.25690343 7.28176505 46.73242331 8.78907969 47 12 C42.57734525 16.21205214 39.45541714 17.42091637 33.3125 17.625 C21.6955354 17.16919121 13.03168272 11.90465599 4 5 C3.2471875 4.47664062 2.494375 3.95328125 1.71875 3.4140625 C1.1515625 2.94742188 0.584375 2.48078125 0 2 C0 1.34 0 0.68 0 0 Z " fill="#F9F9F9" transform="translate(143,929)"/>
<path d="M0 0 C3.50656172 1.16885391 3.76494797 1.78675841 5.55859375 4.8671875 C6.02547607 5.66535889 6.4923584 6.46353027 6.97338867 7.28588867 C7.45654541 8.14029541 7.93970215 8.99470215 8.4375 9.875 C8.93032471 10.74036377 9.42314941 11.60572754 9.9309082 12.49731445 C14.66688238 20.95933354 19.17912953 29.06162251 18 39 C16.5 42.5 16.5 42.5 15 45 C10.53416487 44.72934333 7.85694416 42.84896791 4.64453125 39.9375 C-2.25827923 31.80497269 -2.59442872 20.14675993 -2 10 C-1.48266058 6.62604729 -0.8056897 3.31627636 0 0 Z " fill="#F5F5F5" transform="translate(109,752)"/>
<path d="M0 0 C0.33 0 0.66 0 1 0 C3.92044174 12.54225425 4.95014892 25.22280869 -1 37 C-3.64893981 41.2383037 -6.30793983 43.24047744 -11 45 C-13.25 45 -13.25 45 -15 44 C-17.24378964 40.18555761 -17.71868324 36.31209945 -17 32 C-13.98344672 21.25065784 -7.98852704 7.98852704 0 0 Z " fill="#F6F6F6" transform="translate(454,754)"/>
<path d="M0 0 C0.60990125 12.19802507 -2.46456677 25.76138725 -10.8515625 35.05078125 C-15.54411433 38.96747292 -19.96005371 39.97203729 -26 40 C-26.80563816 30.42185748 -25.03450196 24.92412135 -18.98046875 17.53515625 C-3.5527735 0 -3.5527735 0 0 0 Z " fill="#F9F9F9" transform="translate(463,800)"/>
<path d="M0 0 C-3.06409663 12.14887435 -8.25029376 25.43337655 -19.265625 32.44140625 C-23.94910283 34.72738948 -27.82147434 35.53942976 -33 35 C-34 34 -34 34 -34.08984375 32.21484375 C-33.5719176 24.47251176 -30.47324099 20.25292346 -24.90625 15.0390625 C-7.07336957 0 -7.07336957 0 0 0 Z " fill="#F7F7F7" transform="translate(460,845)"/>
<path d="M0 0 C5.16941458 1.43373594 9.06831269 3.75581676 13.4375 6.75 C14.43100464 7.42434082 14.43100464 7.42434082 15.44458008 8.11230469 C28.55210193 17.10420386 28.55210193 17.10420386 32 24 C32.589941 27.32966698 32.8665296 30.62319884 33 34 C26.19406458 34.49298526 21.4461708 34.29210127 16 30 C15.15695313 29.37544922 15.15695313 29.37544922 14.296875 28.73828125 C9.81486461 24.89223179 7.26357721 20.19052696 4.625 15 C4.10595093 13.98534668 4.10595093 13.98534668 3.57641602 12.95019531 C1.46580554 8.59260133 0.43966255 4.82372629 0 0 Z " fill="#F9F9F9" transform="translate(105,843)"/>
<path d="M0 0 C0.66 0.33 1.32 0.66 2 1 C4.46546621 12.14111619 5.30137868 29.62865203 0 40 C-2.4375 43.125 -2.4375 43.125 -5 45 C-9 45 -9 45 -10.484375 43.6015625 C-14.61257248 37.15443928 -14.90541039 31.99978834 -13.55859375 24.5625 C-11.21797399 15.3766715 -5.99832322 7.23753725 0 0 Z " fill="#F6F6F6" transform="translate(156,675)"/>
<path d="M0 0 C7.87750439 6.95073917 13.8705353 17.57084854 15.453125 27.98046875 C15.88015598 35.63791066 13.92369413 40.19707477 9 46 C2.83416745 42.30050047 0.33246932 38.97416375 -1.58105469 32.07592773 C-2.37586025 28.13756426 -2.29225115 24.19079609 -2.25 20.1875 C-2.24613281 19.30545898 -2.24226563 18.42341797 -2.23828125 17.51464844 C-2.15766399 11.45267824 -1.56748814 5.87808051 0 0 Z " fill="#F6F6F6" transform="translate(407,678)"/>
<path d="M0 0 C0.66 0 1.32 0 2 0 C2.79807198 1.68448018 3.58812301 3.37276127 4.375 5.0625 C4.81585938 6.00222656 5.25671875 6.94195313 5.7109375 7.91015625 C9.43337132 16.83271732 10.78399478 27.14783824 8.3125 36.640625 C6.19589541 41.26187835 3.06851019 44.0410835 -1 47 C-4.67575355 43.56929668 -6.70712203 41.11491691 -7.40625 36.06640625 C-7.74760289 23.30834193 -3.99589541 11.98768624 0 0 Z " fill="#F7F7F7" transform="translate(434,713)"/>
<path d="M0 0 C23.95746888 19.6983633 23.95746888 19.6983633 25.421875 31.359375 C25.43557985 34.27850833 25.31885472 37.09994038 25 40 C19.98239657 40.53760037 17.0004882 40.45153454 12.8125 37.5 C4.34192816 30.3058157 1.7370038 20.6612346 0 10 C-0.25485241 6.62623946 -0.29161548 3.36977893 0 0 Z " fill="#FAFAFA" transform="translate(102,797)"/>
<path d="M0 0 C0.66 0 1.32 0 2 0 C12.01629759 29.01667891 12.01629759 29.01667891 8.1015625 40.67578125 C7 42.875 7 42.875 5 46 C1.20614979 45.78320856 0.0563797 45.0563797 -2.6875 42.3125 C-7.38794095 36.0452454 -7.62844152 29.58963992 -7 22 C-5.72842385 14.1941931 -3.58829155 7.04908035 0 0 Z " fill="#F8F8F8" transform="translate(128,711)"/>
<path d="M0 0 C10.59461719 0.94174375 19.14831937 4.86805676 27 12 C27.804375 12.721875 28.60875 13.44375 29.4375 14.1875 C31.56272242 18.01290036 31.91996697 21.74442815 32.41015625 26.0625 C33.05031343 29.25056753 34.1860103 31.32571708 36 34 C34.125 33.75 34.125 33.75 32 33 C30.75 30.9375 30.75 30.9375 30 29 C28.989375 29.0825 27.97875 29.165 26.9375 29.25 C20.24693386 28.82520215 16.52993902 25.81057569 12.0625 21.125 C7.87356423 16.21468194 0 6.72917136 0 0 Z " fill="#F8F8F8" transform="translate(360,669)"/>
<path d="M0 0 C-3.13892872 10.37211229 -9.98130296 19.76050497 -18 27 C-22.16943614 29.00029024 -26.49564684 30.02405681 -31 31 C-32.54076187 29.45923813 -32.24356699 28.0155515 -32.3125 25.875 C-32.2111283 20.05073496 -30.21291651 16.31781774 -26.26953125 12.1875 C-18.91123303 5.37262899 -10.25087124 0 0 0 Z " fill="#F8F8F8" transform="translate(204,666)"/>
<path d="M0 0 C4.75023738 8.23374479 3.97587512 19.91538552 1.875 28.875 C0.3019515 34.06530014 -2.19112079 37.19112079 -6 41 C-9.7890625 40.234375 -9.7890625 40.234375 -11.6875 38.125 C-14.82270413 33.04895521 -14.92464847 27.76075955 -14 22 C-12.99362015 19.12199476 -11.73396983 16.41456448 -10.375 13.6875 C-10.04443604 13.01823486 -9.71387207 12.34896973 -9.37329102 11.65942383 C-6.88082815 6.94961344 -3.91037426 3.61345473 0 0 Z " fill="#F7F7F7" transform="translate(158,831)"/>
<path d="M0 0 C-0.23785897 11.17937173 -3.48665538 20.21425936 -11.2421875 28.40625 C-14.70747543 31.54811105 -17.60616922 32.89278225 -22.25 33.25 C-25 33 -25 33 -27 32 C-26.78740439 23.65079044 -24.18022216 18.51498238 -18.625 12.375 C-4.94736842 0 -4.94736842 0 0 0 Z " fill="#F7F7F7" transform="translate(353,919)"/>
<path d="M0 0 C2 1 2 1 2.60546875 2.6484375 C4.37184526 13.17674108 3.30979339 22.42074578 -2.54296875 31.35546875 C-5.45871767 35.12525855 -7.59685795 37.37457191 -12.4375 38 C-13.613125 38 -14.78875 38 -16 38 C-18.26591908 31.20224275 -17.56680151 25.44111429 -14.5 19 C-10.65179544 11.91601299 -5.78852328 5.60931203 0 0 Z " fill="#F6F6F6" transform="translate(380,896)"/>
<path d="M0 0 C6.30652899 2.5254021 11.37971415 5.83727985 16.375 10.375 C16.87418945 10.82077393 17.37337891 11.26654785 17.88769531 11.72583008 C22.61993059 16.17007868 26.31789381 21.22657258 26.8125 27.875 C26.91498047 29.01582031 26.91498047 29.01582031 27.01953125 30.1796875 C27 32 27 32 26 33 C20.00088666 33.51716494 15.79013584 32.93152659 11 29 C4.16284786 22.63206418 0.27683825 11.22886071 -0.1328125 2.01171875 C-0.08898437 1.34785156 -0.04515625 0.68398438 0 0 Z " fill="#F9F9F9" transform="translate(211,916)"/>
<path d="M0 0 C4.74504589 3.570664 7.53018713 6.91159325 10.3125 12.125 C10.65861328 12.74503906 11.00472656 13.36507812 11.36132812 14.00390625 C15.11646823 20.81147018 15.56846446 26.31557862 15 34 C13.14622642 39.3759434 13.14622642 39.3759434 9.890625 41.1484375 C9.26671875 41.42945313 8.6428125 41.71046875 8 42 C6.86337618 40.80259416 5.74121834 39.59145019 4.625 38.375 C3.99851562 37.70210937 3.37203125 37.02921875 2.7265625 36.3359375 C-1.45378215 30.68017709 -1.28259761 24.86191503 -1.1875 18.125 C-1.18685547 17.26519531 -1.18621094 16.40539062 -1.18554688 15.51953125 C-1.1496643 10.26472795 -0.75409089 5.20021078 0 0 Z " fill="#F9F9F9" transform="translate(405,833)"/>
<path d="M0 0 C-0.68639385 12.86085321 -1.47209927 26.35496199 -11.5625 35.6875 C-13.60084 37.43397607 -14.38769394 38.03090143 -17.08984375 37.89453125 C-19 37 -19 37 -20.23046875 35.203125 C-22.16812504 29.65572325 -21.50266158 23.46590071 -19.234375 18.10546875 C-16.22560559 12.9734222 -6.77637613 0 0 0 Z " fill="#F9F9F9" transform="translate(157,796)"/>
<path d="M0 0 C1.80791016 -0.00386719 1.80791016 -0.00386719 3.65234375 -0.0078125 C6.59472592 0.10678199 9.20739223 0.44237461 12.0625 1.125 C7.62051809 6.70595163 2.92479882 11.05563793 -2.9375 15.125 C-3.56398437 15.56328125 -4.19046875 16.0015625 -4.8359375 16.453125 C-10.78832097 20.01953198 -17.17840903 19.70900078 -23.9375 19.125 C-24.5975 18.795 -25.2575 18.465 -25.9375 18.125 C-25.52152821 12.82135963 -24.88508864 9.78374069 -20.9375 6.125 C-13.82254005 1.93415837 -8.26069855 -0.01763223 0 0 Z " fill="#F6F6F6" transform="translate(186.9375,705.875)"/>
<path d="M0 0 C17.39207084 16.88053934 17.39207084 16.88053934 18.23046875 28.078125 C18.20919922 29.64820313 18.20919922 29.64820313 18.1875 31.25 C18.18105469 32.30703125 18.17460937 33.3640625 18.16796875 34.453125 C18 37 18 37 17 38 C13.26367891 38.43445594 11.26547601 38.13273801 7.875 36.4375 C4.36860102 33.46468347 3.02340469 31.11907384 1 27 C0.63777344 26.2884375 0.27554688 25.576875 -0.09765625 24.84375 C-1.3658345 20.84706702 -1.25137176 17.10261127 -1.1875 12.9375 C-1.18685547 12.13505859 -1.18621094 11.33261719 -1.18554688 10.50585938 C-1.15797768 6.81465007 -1.00453545 3.57173728 0 0 Z " fill="#F9F9F9" transform="translate(183,893)"/>
<path d="M0 0 C7.44312529 2.41002805 13.60314572 9.13637984 17.5 15.8125 C17.995 16.864375 18.49 17.91625 19 19 C19.433125 19.78375 19.86625 20.5675 20.3125 21.375 C21.35461419 25.35398146 20.9361831 29.01750681 20 33 C18.4375 35.5625 18.4375 35.5625 17 37 C12.04663386 35.9385644 9.45830441 34.04890291 6.38671875 30.1953125 C0.47360038 20.83426314 -0.17202723 10.7421451 0 0 Z " fill="#F9F9F9" transform="translate(408,800)"/>
<path d="M0 0 C11.40331717 3.82460561 20.49469888 8.2251353 26.97265625 18.72265625 C28.64423236 22.42808922 28.55407255 24.982974 28 29 C27.34 29.99 26.68 30.98 26 32 C20.22193016 31.64624062 16.17448396 30.18376059 12 26 C6.63314252 19.05533249 0 9.0251617 0 0 Z " fill="#F8F8F8" transform="translate(401,766)"/>
<path d="M0 0 C8.16552194 0.1252009 14.83646933 1.54519747 21.21411133 6.8815918 C24.50815075 11.02570591 25.38613042 13.04241227 25.15161133 18.3190918 C18.40256125 20.56877516 12.62377989 19.90281578 6.21411133 16.8815918 C-9.51294563 8.32542091 -9.51294563 8.32542091 -11.84838867 1.3190918 C-9.50855564 -1.02074124 -3.27152825 0.00871891 0 0 Z " fill="#F9F9F9" transform="translate(377.848388671875,708.680908203125)"/>
<path d="M0 0 C12.96474198 1.41433549 23.23385616 3.68390029 32 14 C33.20272819 16.40545638 33.10071472 17.94996953 33.0625 20.625 C33.05347656 21.44226563 33.04445313 22.25953125 33.03515625 23.1015625 C33.02355469 23.72804688 33.01195312 24.35453125 33 25 C24.68447501 25.69296042 19.84350391 23.61685373 13.0625 19 C7.93657742 14.48295773 1.00632639 6.87931319 0 0 Z " fill="#F9F9F9" transform="translate(387,736)"/>
<path d="M0 0 C6.98866129 8.1235721 9.82152424 17.53351121 9.359375 28.17578125 C8.76855078 32.81888896 7.34058958 35.6147241 4.125 38.9375 C2 40 2 40 -0.5625 40.1875 C-3 39 -3 39 -4.8125 35.875 C-8.21011746 24.95966573 -6.24857425 13.35783796 -2 3 C-1.34 2.01 -0.68 1.02 0 0 Z " fill="#F7F7F7" transform="translate(396,868)"/>
<path d="M0 0 C-3.25206908 9.51531323 -11.7143654 18.26259564 -20.3125 23.375 C-24.51811016 24.35304887 -28.70312437 24.15018206 -33 24 C-33.41981564 17.91267324 -33.16672773 14.79173689 -29 10 C-21.34525339 2.47690751 -10.60676251 -0.83190294 0 0 Z " fill="#F7F7F7" transform="translate(177,734)"/>
<path d="M0 0 C3.89076213 5.83614319 5.6009335 12.004599 6 19 C6.06445312 20.01578125 6.12890625 21.0315625 6.1953125 22.078125 C6.44923332 29.35718861 5.6667599 34.66501749 2 41 C-1.92331434 40.77581061 -2.96128088 40.04047908 -5.75 37.125 C-9.8492967 31.43153236 -9.70226758 25.80419251 -9 19 C-7.06252478 12.11808801 -4.37968246 5.67736615 0 0 Z " fill="#F8F8F8" transform="translate(168,865)"/>
<path d="M0 0 C-3.05962157 11.6912369 -7.54477223 23.22865423 -18.125 30 C-20.99060871 30.99673347 -22.99571243 31.34334715 -26 31 C-27.69470335 29.30529665 -27.33208662 27.25978877 -27.4375 24.9375 C-27.37187055 18.60425821 -25.37150456 15.41036237 -21 11 C-20.48179687 10.45601562 -19.96359375 9.91203125 -19.4296875 9.3515625 C-14.4075637 4.57205338 -7.05609571 0 0 0 Z " fill="#F9F9F9" transform="translate(163,764)"/>
<path d="M0 0 C0.33 0 0.66 0 1 0 C1 7.26 1 14.52 1 22 C1.66 22 2.32 22 3 22 C1.3470768 44.05569892 -5.23874677 63.84336916 -14 84 C-14.3594873 84.84320801 -14.71897461 85.68641602 -15.08935547 86.55517578 C-16.08984375 88.75390625 -16.08984375 88.75390625 -18 92 C-20.11938477 92.70288086 -20.11938477 92.70288086 -22 93 C-20.74375558 88.92672263 -19.18940394 85.14080705 -17.38549805 81.29296875 C-4.82000591 54.33438693 -0.59442265 29.49781328 0 0 Z " fill="#E1E1E1" transform="translate(433,801)"/>
<path d="M0 0 C0.66 0 1.32 0 2 0 C0.54520428 4.2476923 -1.59993905 7.31448628 -4.3125 10.875 C-18.97928107 30.84463846 -29.19265373 53.27247095 -36 77 C-36.66 77 -37.32 77 -38 77 C-37.48682666 70.66043175 -36.38096981 65.24764308 -34.125 59.3125 C-33.81892822 58.50216309 -33.51285645 57.69182617 -33.19750977 56.85693359 C-25.36052256 36.72877521 -14.71557427 16.01553666 0 0 Z " fill="#E6E6E6" transform="translate(171,696)"/>
<path d="M0 0 C0.66 0.33 1.32 0.66 2 1 C-2.06346483 8.23419875 -6.64197314 14.67138787 -12 21 C-12.99966797 22.22009766 -12.99966797 22.22009766 -14.01953125 23.46484375 C-20.11755483 30.62634454 -28.86323896 39.95441299 -38 43 C-36.58939996 37.75521864 -33.49560208 35.68356579 -29.3125 32.625 C-28.02901619 31.64615127 -26.74773708 30.6644045 -25.46875 29.6796875 C-24.8603125 29.21272461 -24.251875 28.74576172 -23.625 28.26464844 C-15.46478232 21.91399826 -7.43441839 12.22892984 -2.9777832 2.84838867 C-2 1 -2 1 0 0 Z " fill="#E5E5E5" transform="translate(412,893)"/>
<path d="M0 0 C0.33 0 0.66 0 1 0 C1 7.26 1 14.52 1 22 C1.66 22 2.32 22 3 22 C2.69089383 29.01671013 1.52965372 35.72541138 0 42.5625 C-0.17821289 43.36026855 -0.35642578 44.15803711 -0.54003906 44.97998047 C-1.85791927 50.71583855 -1.85791927 50.71583855 -3 53 C-3.66 53 -4.32 53 -5 53 C-4.46436088 48.36981183 -3.79342464 43.84161876 -2.89575195 39.26513672 C-0.42290057 26.28304835 -0.26560623 13.18052573 0 0 Z " fill="#EFEFEF" transform="translate(433,801)"/>
<path d="M0 0 C0.99 0 1.98 0 3 0 C4.86172732 2.29511302 6.49816496 4.54491179 8.125 7 C8.84490112 8.06541016 8.84490112 8.06541016 9.5793457 9.15234375 C14.48611223 16.52504592 18.80309954 24.20723668 23 32 C22.01 32.66 21.02 33.32 20 34 C19.55011719 33.1028125 19.10023438 32.205625 18.63671875 31.28125 C14.48310834 23.16946736 9.89119549 15.61386676 4.59448242 8.19335938 C2.66105209 5.47644073 1.06142563 3.18427689 0 0 Z " fill="#E2E2E2" transform="translate(394,703)"/>
<path d="M0 0 C0.33 0.66 0.66 1.32 1 2 C1.66 2 2.32 2 3 2 C2.79503906 3.1653125 2.59007812 4.330625 2.37890625 5.53125 C0.12510807 19.01227628 -0.68002056 32.34518687 -1 46 C-1.33 46 -1.66 46 -2 46 C-2.495 38.575 -2.495 38.575 -3 31 C-3.33 31 -3.66 31 -4 31 C-4.26456953 24.12119227 -3.25097863 17.75359411 -2 11 C-1.71382812 9.40865234 -1.71382812 9.40865234 -1.421875 7.78515625 C-0.95408449 5.18891893 -0.47999288 2.59400405 0 0 Z " fill="#DDDDDD" transform="translate(132,771)"/>
<path d="M0 0 C0.66 0 1.32 0 2 0 C2.90816798 3.86207074 3.11643845 7.43148656 3.09765625 11.39453125 C3.09443359 12.59658203 3.09121094 13.79863281 3.08789062 15.03710938 C3.07951172 16.28298828 3.07113281 17.52886719 3.0625 18.8125 C3.05798828 20.07771484 3.05347656 21.34292969 3.04882812 22.64648438 C3.03706251 25.7643711 3.02062272 28.88216133 3 32 C2.34 32 1.68 32 1 32 C0.67 21.44 0.34 10.88 0 0 Z " fill="#FAFAFA" transform="translate(433,791)"/>
<path d="M0 0 C0.66 0.33 1.32 0.66 2 1 C-2.05822954 8.22487835 -6.67852782 14.65205096 -12 21 C-12.66 20.67 -13.32 20.34 -14 20 C-12.27292183 16.20042802 -9.93869279 12.85015815 -7.5625 9.4375 C-7.16740234 8.86064453 -6.77230469 8.28378906 -6.36523438 7.68945312 C-4.42946741 4.89692408 -2.52764663 2.28382219 0 0 Z " fill="#EDEDED" transform="translate(412,893)"/>
<path d="M0 0 C6.39296661 1.99332068 12.47046394 4.41474614 18.5625 7.1875 C19.38041016 7.55552734 20.19832031 7.92355469 21.04101562 8.30273438 C23.02909218 9.19795013 25.01480308 10.0984165 27 11 C26.67 11.66 26.34 12.32 26 13 C20.61024062 11.29750645 15.40839324 9.21646428 10.1875 7.0625 C9.31673828 6.71509766 8.44597656 6.36769531 7.54882812 6.00976562 C6.72189453 5.66751953 5.89496094 5.32527344 5.04296875 4.97265625 C3.91411255 4.51258179 3.91411255 4.51258179 2.76245117 4.04321289 C1 3 1 3 0 0 Z " fill="#DEDEDE" transform="translate(220,947)"/>
<path d="M0 0 C0.66 0.33 1.32 0.66 2 1 C-2.25699162 5.8245905 -7.28911194 9.05863995 -13 12 C-13.66 12 -14.32 12 -15 12 C-14.93359375 10.26953125 -14.93359375 10.26953125 -14 8 C-11.69357306 6.37587888 -9.52456952 5.02223938 -7.0625 3.6875 C-6.41603516 3.31560547 -5.76957031 2.94371094 -5.10351562 2.56054688 C-3.44121729 1.63359547 -1.72311604 0.80829807 0 0 Z " fill="#EDEDED" transform="translate(373,933)"/>
<path d="M0 0 C0.33 0 0.66 0 1 0 C1 7.26 1 14.52 1 22 C1.66 22 2.32 22 3 22 C2.67 25.63 2.34 29.26 2 33 C1.01 32.67 0.02 32.34 -1 32 C-0.67 21.44 -0.34 10.88 0 0 Z " fill="#B2B2B2" transform="translate(433,801)"/>
<path d="M0 0 C0.33 0.66 0.66 1.32 1 2 C1.66 2 2.32 2 3 2 C2.39363767 7.76044212 0.24341721 12.72014369 -2 18 C-2.99 18 -3.98 18 -5 18 C-4.27595226 13.95295419 -3.16553713 10.10929598 -1.9375 6.1875 C-1.57527344 5.02605469 -1.21304687 3.86460937 -0.83984375 2.66796875 C-0.56269531 1.78753906 -0.28554688 0.90710938 0 0 Z " fill="#DDDDDD" transform="translate(427,852)"/>
<path d="M0 0 C2.00384991 3.00577487 3.26119742 5.84977264 4.625 9.1875 C5.07101563 10.27417969 5.51703125 11.36085938 5.9765625 12.48046875 C6.31429687 13.31191406 6.65203125 14.14335938 7 15 C6.01 15.66 5.02 16.32 4 17 C3.12957757 15.11157486 2.27924526 13.21388098 1.4375 11.3125 C0.96183594 10.25675781 0.48617187 9.20101562 -0.00390625 8.11328125 C-1.05322011 4.83366107 -1.00418265 3.24104461 0 0 Z " fill="#E1E1E1" transform="translate(143,869)"/>
<path d="M0 0 C0.33 0 0.66 0 1 0 C1 8.91 1 17.82 1 27 C0.67 27 0.34 27 0 27 C-0.33 22.05 -0.66 17.1 -1 12 C-1.33 12 -1.66 12 -2 12 C-2.28571429 3.42857143 -2.28571429 3.42857143 0 0 Z " fill="#C9C9C9" transform="translate(130,790)"/>
<path d="M0 0 C0.93045933 2.55144824 1.08564091 3.74006478 0.22265625 6.359375 C-0.16019531 7.14828125 -0.54304688 7.9371875 -0.9375 8.75 C-1.31777344 9.54921875 -1.69804687 10.3484375 -2.08984375 11.171875 C-2.39019531 11.77515625 -2.69054687 12.3784375 -3 13 C-3.99 13 -4.98 13 -6 13 C-4.66666667 9 -3.33333333 5 -2 1 C-1.34 0.67 -0.68 0.34 0 0 Z " fill="#EBEBEB" transform="translate(423,869)"/>
<path d="M0 0 C0.66 0 1.32 0 2 0 C1.39254603 4.85963179 -0.72758967 8.7405518 -3 13 C-3.66 12.67 -4.32 12.34 -5 12 C-3.68938409 7.76570244 -2.05643741 3.92592596 0 0 Z " fill="#F2F2F2" transform="translate(148,731)"/>
<path d="M0 0 C0.33 0.99 0.66 1.98 1 3 C1.66 3 2.32 3 3 3 C3 6.3 3 9.6 3 13 C2.34 13 1.68 13 1 13 C-0.10228696 8.59085217 -0.07654536 4.51617599 0 0 Z " fill="#E9E9E9" transform="translate(128,814)"/>
<path d="M0 0 C0.66 0 1.32 0 2 0 C0.69386058 3.91841827 -0.83129848 6.32640809 -4 9 C-4.66 9 -5.32 9 -6 9 C-4.4722133 5.56247993 -2.49818944 2.81046312 0 0 Z " fill="#E4E4E4" transform="translate(171,696)"/>
<path d="M0 0 C0.33 0 0.66 0 1 0 C1.33 3.3 1.66 6.6 2 10 C1.34 10 0.68 10 0 10 C-0.33 10.66 -0.66 11.32 -1 12 C-1.33 9.36 -1.66 6.72 -2 4 C-1.34 4 -0.68 4 0 4 C0 2.68 0 1.36 0 0 Z " fill="#CCCCCC" transform="translate(131,823)"/>
<path d="M0 0 C0.99 0.33 1.98 0.66 3 1 C3 2.65 3 4.3 3 6 C2.34 6 1.68 6 1 6 C0.67 7.32 0.34 8.64 0 10 C0 6.7 0 3.4 0 0 Z " fill="#D0D0D0" transform="translate(432,785)"/>
<path d="M0 0 C0.33 0.66 0.66 1.32 1 2 C1.66 2 2.32 2 3 2 C2.67 3.98 2.34 5.96 2 8 C1.01 8 0.02 8 -1 8 C-0.67 5.36 -0.34 2.72 0 0 Z " fill="#CECECE" transform="translate(132,771)"/>
<path d="M0 0 C0.33 0 0.66 0 1 0 C1.125 5.75 1.125 5.75 0 8 C-0.66 8 -1.32 8 -2 8 C-1.125 1.125 -1.125 1.125 0 0 Z " fill="#EEEEEE" transform="translate(135,765)"/>
<path d="M0 0 C3 1 3 1 4.6875 4.0625 C5.120625 5.031875 5.55375 6.00125 6 7 C5.01 7 4.02 7 3 7 C0 2.77777778 0 2.77777778 0 0 Z " fill="#161616" transform="translate(405,714)"/>
</svg>
