<?xml version="1.0" encoding="UTF-8"?>
<svg width="20px" height="20px" viewBox="0 0 20 20" version="1.1" xmlns="http://www.w3.org/2000/svg" xmlns:xlink="http://www.w3.org/1999/xlink">
    <title>AI</title>
    <desc>Artificial Intelligence Icon</desc>
    <defs></defs>
    <g id="AI" stroke="none" stroke-width="1" fill="none" fill-rule="evenodd">
        <!-- Brain/Circuit pattern for AI -->
        <path d="M10,4 C11.657,4 13,5.343 13,7 C13,7.352 12.942,7.69 12.837,8.005 C13.537,8.13 14.095,8.578 14.345,9.175 C14.686,9.089 15.043,9.043 15.41,9.043 C16.838,9.043 18,10.205 18,11.633 C18,13.061 16.838,14.223 15.41,14.223 C15.043,14.223 14.686,14.177 14.345,14.091 C14.095,14.688 13.537,15.136 12.837,15.261 C12.942,15.576 13,15.914 13,16.266 C13,17.923 11.657,19.266 10,19.266 C8.343,19.266 7,17.923 7,16.266 C7,15.914 7.058,15.576 7.163,15.261 C6.463,15.136 5.905,14.688 5.655,14.091 C5.314,14.177 4.957,14.223 4.59,14.223 C3.162,14.223 2,13.061 2,11.633 C2,10.205 3.162,9.043 4.59,9.043 C4.957,9.043 5.314,9.089 5.655,9.175 C5.905,8.578 6.463,8.13 7.163,8.005 C7.058,7.69 7,7.352 7,7 C7,5.343 8.343,4 10,4 Z M10,14.5 C11.105,14.5 12,13.605 12,12.5 C12,11.395 11.105,10.5 10,10.5 C8.895,10.5 8,11.395 8,12.5 C8,13.605 8.895,14.5 10,14.5 Z" id="AI-Brain" fill="#4C97FF"></path>
        <!-- Connection nodes -->
        <circle id="node1" fill="#4C97FF" cx="10" cy="7" r="0.8"></circle>
        <circle id="node2" fill="#4C97FF" cx="15.5" cy="11.633" r="0.8"></circle>
        <circle id="node3" fill="#4C97FF" cx="10" cy="16.266" r="0.8"></circle>
        <circle id="node4" fill="#4C97FF" cx="4.5" cy="11.633" r="0.8"></circle>
    </g>
</svg>
